<svg width="35" height="35" viewBox="0 0 35 35" fill="none" xmlns="http://www.w3.org/2000/svg">
<path d="M17.5005 0C7.83553 0 0.000488281 7.83497 0.000488281 17.5C0.000488281 27.165 7.83553 35 17.5005 35C27.1654 35 35.0005 27.165 35.0005 17.5C35.0005 7.83504 27.1654 0 17.5005 0ZM28.2249 28.2244C25.5656 30.8757 22.0145 32.4419 18.2635 32.6179C14.5125 32.7938 10.8303 31.567 7.93442 29.1764C5.03856 26.7858 3.13647 23.4026 2.59877 19.6862C2.06107 15.9697 2.92628 12.1862 5.02582 9.07288C7.12536 5.95952 10.3088 3.73935 13.9559 2.84497C17.603 1.95059 21.4524 2.44608 24.7541 4.23488C28.0558 6.02368 30.5733 8.97765 31.8159 12.5212C33.0586 16.0648 32.9375 19.9441 31.4762 23.4032C30.7146 25.2055 29.6104 26.8429 28.2249 28.2244Z" fill="white"/>
<path d="M18.7119 10.8606L17.0619 9.21069L8.77271 17.4999L17.0619 25.7892L18.7119 24.1393L13.2392 18.6666H26.9067V16.3333H13.2392L18.7119 10.8606Z" fill="white"/>
</svg>
